<svg xmlns="http://www.w3.org/2000/svg" xmlns:xlink="http://www.w3.org/1999/xlink" viewBox="343.7 324.83 346.4 373.42"><path fill="#DC302F" transform="matrix(1.00879 0 0 1.00879 -0.000244141 -6.10352e-05)" d="M362.663 322.017C376.503 328.675 393.133 334.242 407.356 340.314C411.797 342.21 423.024 346.152 426.386 348.552C430.208 351.279 438.044 361.507 441.453 365.606L463.371 391.853L558.836 506.02C572.932 522.813 590.667 545.477 605.539 561.179C599.4 567.139 592.518 571.945 586.485 578.173C581.528 573.289 575.442 566.076 570.752 560.767L540.729 526.591C504.676 485.956 467.769 443.413 431.069 403.541C425.234 396.589 419.346 389.682 413.406 382.82L413.15 382.908C414.962 386.261 427.317 401.444 430.377 404.634C438.69 415.179 447.748 425.843 456.276 436.312C482.576 468.625 509.078 500.773 535.778 532.755L563.311 565.79C567.581 570.89 575.223 579.502 578.633 584.781C572.093 590.234 565.757 595.953 559.143 601.447C511.252 545.214 462.006 490.296 413.577 434.508L388.744 406.137C386.889 404.037 377.739 394.261 377.18 392.703C374.747 385.915 372.802 373.836 371.395 366.581L362.663 322.017Z"/><path fill="#266CAB" transform="matrix(1.00879 0 0 1.00879 -0.000244141 -6.10352e-05)" d="M517.953 442.437L518.518 441.889C524.387 436.142 534.295 423.686 539.817 417.135L579.273 370.192C584.274 364.197 592.555 352.613 598.421 348.486C601.137 346.576 612.677 342.511 616.563 340.801C630.541 334.651 646.874 329.19 660.622 322.841C655.149 345.099 652.612 368.115 646.77 390.302C644.748 397.983 571.95 476.631 559.69 492.273C553.515 486.231 546.327 475.255 540.909 470.624C544.422 465.102 552.064 456.804 556.476 451.316L583.151 418.045C588.721 411.182 595.217 403.625 600.49 396.68C602.887 394.243 615.666 379.253 615.774 376.728C614.551 377.006 601.384 393.189 599.107 395.651C594.664 399.913 589.458 406.301 585.21 411.065L553.412 446.599C548.627 451.94 541.724 460.192 536.775 464.898C532.566 459.854 521.946 446.289 517.953 442.437Z"/><path fill="#DC302F" transform="matrix(1.00879 0 0 1.00879 -0.000244141 -6.10352e-05)" d="M620.852 604.859C622.783 605.556 648.364 636.83 652.322 641.087C658.563 640.825 663.007 640.714 668.912 643.421C675.311 646.312 680.26 651.678 682.625 658.29C684.908 664.718 684.481 671.799 681.444 677.907C677.778 685.185 672.504 688.603 665.175 691.181C660.345 692.193 656.734 692.61 651.77 691.373C645.156 689.737 639.514 685.438 636.181 679.495C632.273 672.546 631.973 664.714 634.185 657.214C631.519 653.529 626.424 647.954 623.251 644.276C616.372 636.387 609.577 628.427 602.865 620.396C606.828 617.948 616.932 608.458 620.852 604.859ZM661.209 677.868C667.456 676.23 671.204 669.851 669.594 663.596C667.983 657.342 661.62 653.566 655.359 655.149C649.059 656.741 645.254 663.153 646.874 669.446C648.495 675.74 654.923 679.517 661.209 677.868Z"/><path fill="#266CAB" transform="matrix(1.00879 0 0 1.00879 -0.000244141 -6.10352e-05)" d="M402.625 605.759C405.1 606.594 415.299 617.463 420.298 620.313C416.206 626.284 394.082 652.004 389.016 656.516C392.221 666.296 391.444 676.296 383.835 684.137C376.688 691.5 369.474 691.181 360.091 691.148C346.223 687.319 338.952 676.89 341.096 662.556C343.611 645.749 356.433 640.735 371.356 641.411C375.335 638.938 396.106 612.063 402.625 605.759ZM353.539 666.734C353.652 669.926 355.022 672.944 357.35 675.131C359.874 677.502 363.293 678.678 366.741 678.364C371.125 677.963 374.946 675.216 376.721 671.188C378.496 667.16 377.946 662.487 375.284 658.981C372.622 655.476 368.267 653.691 363.91 654.32C357.791 655.203 353.319 660.555 353.539 666.734Z"/><path fill="#DC302F" transform="matrix(1.00879 0 0 1.00879 -0.000244141 -6.10352e-05)" d="M639.002 543.759L639.582 543.84C642.013 545.873 641.538 568.041 642.854 574.191C630.618 585.615 616.196 597.302 603.428 608.412C591.936 618.414 579.522 629.914 567.791 639.362C562.791 638.813 552.297 636.237 546.895 635.112C543.583 634.352 539.647 633.7 536.264 633.052C542.776 626.18 557.153 614.806 564.74 608.269L605.269 572.989C616.055 563.742 628.785 553.398 639.002 543.759Z"/><path fill="#266CAB" transform="matrix(1.00879 0 0 1.00879 -0.000244141 -6.10352e-05)" d="M384.179 544.629C385.753 545.155 477.687 624.434 486.368 632.622C483.896 632.997 481.162 633.633 478.69 634.148C471.716 635.55 462.839 637.564 456.06 639.372C438.86 623.995 421.535 608.758 404.087 593.662C397.504 587.937 387.723 580.127 381.787 574.391C381.819 566.333 383.108 552.666 384.179 544.629Z"/><path fill="#266CAB" transform="matrix(1.00879 0 0 1.00879 -0.000244141 -6.10352e-05)" d="M464.402 506.839C467.013 508.851 477.464 522.022 481.967 526.228C477.37 532.137 439.494 576.537 437.762 577.091C431.954 573.012 423.297 563.975 418.517 561.154C428.815 550.27 439.386 536.726 449.266 525.304C452.472 521.599 462.202 510.316 464.402 506.839Z"/><path fill="#266CAB" transform="matrix(1.00879 0 0 1.00879 -0.000244141 -6.10352e-05)" d="M487.608 533.114C489.813 534.66 502.834 550.136 505.132 552.833C501.806 557.298 497.238 562.128 493.682 566.55C484.353 578.155 473.828 589.655 464.676 601.294C459.707 596.011 451.322 589.729 445.612 584.325C458.851 568.273 475.185 549.607 487.608 533.114Z"/><path fill="#050202" fill-opacity="0.039215688" transform="matrix(1.00879 0 0 1.00879 -0.000244141 -6.10352e-05)" d="M599.107 395.651C601.384 393.189 614.551 377.006 615.774 376.728C615.666 379.253 602.887 394.243 600.49 396.68L599.107 395.651Z"/><path fill="#050202" fill-opacity="0.06666667" transform="matrix(1.00879 0 0 1.00879 -0.000244141 -6.10352e-05)" d="M430.377 404.634C427.317 401.444 414.962 386.261 413.15 382.908L413.406 382.82C419.346 389.682 425.234 396.589 431.069 403.541L430.377 404.634Z"/></svg>